<mxfile host="Electron" modified="2024-06-29T16:25:12.200Z" agent="Mozilla/5.0 (X11; Linux x86_64) AppleWebKit/537.36 (KHTML, like Gecko) draw.io/24.2.5 Chrome/120.0.6099.109 Electron/28.1.0 Safari/537.36" etag="H7v7wtWEmT-ESsCZeO_X" version="24.2.5" type="device">
  <diagram name="Page-1" id="NC5xg8n6S5tjTzDzewW_">
    <mxGraphModel dx="1434" dy="2063" grid="1" gridSize="10" guides="1" tooltips="1" connect="1" arrows="1" fold="1" page="1" pageScale="1" pageWidth="850" pageHeight="1100" math="0" shadow="0">
      <root>
        <mxCell id="0" />
        <mxCell id="1" parent="0" />
        <mxCell id="L-Nm37MA_dD64SVrKHD7-1" style="edgeStyle=orthogonalEdgeStyle;rounded=0;orthogonalLoop=1;jettySize=auto;html=1;" parent="1" source="L-Nm37MA_dD64SVrKHD7-2" target="L-Nm37MA_dD64SVrKHD7-12" edge="1">
          <mxGeometry relative="1" as="geometry">
            <mxPoint x="400" y="680" as="targetPoint" />
            <Array as="points">
              <mxPoint x="480" y="720" />
              <mxPoint x="480" y="720" />
            </Array>
          </mxGeometry>
        </mxCell>
        <mxCell id="L-Nm37MA_dD64SVrKHD7-2" value="" style="rounded=0;whiteSpace=wrap;html=1;" parent="1" vertex="1">
          <mxGeometry x="280" y="580" width="400" height="120" as="geometry" />
        </mxCell>
        <mxCell id="L-Nm37MA_dD64SVrKHD7-3" style="edgeStyle=orthogonalEdgeStyle;rounded=0;orthogonalLoop=1;jettySize=auto;html=1;" parent="1" source="L-Nm37MA_dD64SVrKHD7-4" target="L-Nm37MA_dD64SVrKHD7-2" edge="1">
          <mxGeometry relative="1" as="geometry">
            <Array as="points">
              <mxPoint x="480" y="560" />
              <mxPoint x="480" y="560" />
            </Array>
          </mxGeometry>
        </mxCell>
        <mxCell id="L-Nm37MA_dD64SVrKHD7-4" value="" style="rounded=0;whiteSpace=wrap;html=1;" parent="1" vertex="1">
          <mxGeometry x="280" y="420" width="400" height="120" as="geometry" />
        </mxCell>
        <mxCell id="L-Nm37MA_dD64SVrKHD7-5" style="edgeStyle=orthogonalEdgeStyle;rounded=0;orthogonalLoop=1;jettySize=auto;html=1;" parent="1" source="L-Nm37MA_dD64SVrKHD7-7" target="L-Nm37MA_dD64SVrKHD7-12" edge="1">
          <mxGeometry relative="1" as="geometry">
            <mxPoint x="240" y="680" as="targetPoint" />
            <Array as="points">
              <mxPoint x="240" y="320" />
              <mxPoint x="240" y="795" />
            </Array>
          </mxGeometry>
        </mxCell>
        <mxCell id="L-Nm37MA_dD64SVrKHD7-6" style="edgeStyle=orthogonalEdgeStyle;rounded=0;orthogonalLoop=1;jettySize=auto;html=1;" parent="1" source="L-Nm37MA_dD64SVrKHD7-7" target="L-Nm37MA_dD64SVrKHD7-4" edge="1">
          <mxGeometry relative="1" as="geometry">
            <Array as="points">
              <mxPoint x="480" y="400" />
              <mxPoint x="480" y="400" />
            </Array>
          </mxGeometry>
        </mxCell>
        <mxCell id="L-Nm37MA_dD64SVrKHD7-7" value="" style="rounded=0;whiteSpace=wrap;html=1;" parent="1" vertex="1">
          <mxGeometry x="280" y="260" width="400" height="120" as="geometry" />
        </mxCell>
        <mxCell id="L-Nm37MA_dD64SVrKHD7-8" style="edgeStyle=orthogonalEdgeStyle;rounded=0;orthogonalLoop=1;jettySize=auto;html=1;" parent="1" source="L-Nm37MA_dD64SVrKHD7-34" target="L-Nm37MA_dD64SVrKHD7-7" edge="1">
          <mxGeometry relative="1" as="geometry">
            <mxPoint x="440" y="200" as="sourcePoint" />
            <Array as="points">
              <mxPoint x="480" y="230" />
              <mxPoint x="480" y="230" />
            </Array>
          </mxGeometry>
        </mxCell>
        <mxCell id="L-Nm37MA_dD64SVrKHD7-9" style="edgeStyle=orthogonalEdgeStyle;rounded=0;orthogonalLoop=1;jettySize=auto;html=1;" parent="1" source="L-Nm37MA_dD64SVrKHD7-34" target="L-Nm37MA_dD64SVrKHD7-4" edge="1">
          <mxGeometry relative="1" as="geometry">
            <mxPoint x="630" y="170" as="sourcePoint" />
            <Array as="points">
              <mxPoint x="720" y="80" />
              <mxPoint x="720" y="480" />
            </Array>
          </mxGeometry>
        </mxCell>
        <mxCell id="L-Nm37MA_dD64SVrKHD7-10" style="edgeStyle=orthogonalEdgeStyle;rounded=0;orthogonalLoop=1;jettySize=auto;html=1;" parent="1" source="L-Nm37MA_dD64SVrKHD7-11" target="L-Nm37MA_dD64SVrKHD7-34" edge="1">
          <mxGeometry relative="1" as="geometry">
            <Array as="points">
              <mxPoint x="500" y="60" />
              <mxPoint x="500" y="60" />
            </Array>
          </mxGeometry>
        </mxCell>
        <mxCell id="L-Nm37MA_dD64SVrKHD7-11" value="" style="rounded=0;whiteSpace=wrap;html=1;" parent="1" vertex="1">
          <mxGeometry x="280" y="-190" width="400" height="120" as="geometry" />
        </mxCell>
        <mxCell id="L-Nm37MA_dD64SVrKHD7-12" value="" style="rounded=0;whiteSpace=wrap;html=1;" parent="1" vertex="1">
          <mxGeometry x="280" y="740" width="400" height="100" as="geometry" />
        </mxCell>
        <mxCell id="L-Nm37MA_dD64SVrKHD7-13" value="WASM MEMORY" style="text;html=1;align=center;verticalAlign=middle;whiteSpace=wrap;rounded=0;" parent="1" vertex="1">
          <mxGeometry x="335" y="775" width="120" height="30" as="geometry" />
        </mxCell>
        <mxCell id="L-Nm37MA_dD64SVrKHD7-14" value="TENSOR 1" style="html=1;whiteSpace=wrap;" parent="1" vertex="1">
          <mxGeometry x="510" y="740" width="170" height="25" as="geometry" />
        </mxCell>
        <mxCell id="L-Nm37MA_dD64SVrKHD7-15" value="TENSOR 2" style="html=1;whiteSpace=wrap;" parent="1" vertex="1">
          <mxGeometry x="510" y="765" width="170" height="25" as="geometry" />
        </mxCell>
        <mxCell id="L-Nm37MA_dD64SVrKHD7-16" value="..." style="html=1;whiteSpace=wrap;" parent="1" vertex="1">
          <mxGeometry x="510" y="815" width="170" height="25" as="geometry" />
        </mxCell>
        <mxCell id="L-Nm37MA_dD64SVrKHD7-17" value="&lt;b&gt;add_brc&lt;/b&gt; (ptr, ptr, ptr)" style="rounded=0;whiteSpace=wrap;html=1;" parent="1" vertex="1">
          <mxGeometry x="510" y="580" width="170" height="30" as="geometry" />
        </mxCell>
        <mxCell id="L-Nm37MA_dD64SVrKHD7-18" value="CORE INSTRUCTION SET /&lt;div&gt;&amp;nbsp;EXPOSED CORE FUNCTIONS&lt;/div&gt;" style="text;html=1;align=center;verticalAlign=middle;whiteSpace=wrap;rounded=0;" parent="1" vertex="1">
          <mxGeometry x="300" y="625" width="190" height="30" as="geometry" />
        </mxCell>
        <mxCell id="L-Nm37MA_dD64SVrKHD7-19" value="&lt;b&gt;sub_dbrc&amp;nbsp;&lt;/b&gt;(ptr, ptr, ptr)" style="rounded=0;whiteSpace=wrap;html=1;" parent="1" vertex="1">
          <mxGeometry x="510" y="610" width="170" height="30" as="geometry" />
        </mxCell>
        <mxCell id="L-Nm37MA_dD64SVrKHD7-20" value="&lt;b&gt;sin_prw&amp;nbsp;&lt;/b&gt;(ptr, ptr, ptr)" style="rounded=0;whiteSpace=wrap;html=1;" parent="1" vertex="1">
          <mxGeometry x="510" y="640" width="170" height="30" as="geometry" />
        </mxCell>
        <mxCell id="L-Nm37MA_dD64SVrKHD7-21" value="..." style="rounded=0;whiteSpace=wrap;html=1;" parent="1" vertex="1">
          <mxGeometry x="510" y="670" width="170" height="30" as="geometry" />
        </mxCell>
        <mxCell id="L-Nm37MA_dD64SVrKHD7-22" value="HIGH LEVEL TENSOR OPS /&lt;div&gt;tensor_ops.ts&lt;/div&gt;" style="text;html=1;align=center;verticalAlign=middle;whiteSpace=wrap;rounded=0;" parent="1" vertex="1">
          <mxGeometry x="280" y="465" width="230" height="30" as="geometry" />
        </mxCell>
        <mxCell id="L-Nm37MA_dD64SVrKHD7-23" value="&lt;b&gt;add&lt;/b&gt; (Tensor, Tensor, Tensor)" style="rounded=0;whiteSpace=wrap;html=1;" parent="1" vertex="1">
          <mxGeometry x="510" y="420" width="170" height="30" as="geometry" />
        </mxCell>
        <mxCell id="L-Nm37MA_dD64SVrKHD7-24" value="&lt;b&gt;sub&lt;/b&gt; (Tensor, Tensor, Tensor)" style="rounded=0;whiteSpace=wrap;html=1;" parent="1" vertex="1">
          <mxGeometry x="510" y="450" width="170" height="30" as="geometry" />
        </mxCell>
        <mxCell id="L-Nm37MA_dD64SVrKHD7-25" value="&lt;b&gt;sin&amp;nbsp;&lt;/b&gt;(Tensor, Tensor, Tensor)" style="rounded=0;whiteSpace=wrap;html=1;" parent="1" vertex="1">
          <mxGeometry x="510" y="480" width="170" height="30" as="geometry" />
        </mxCell>
        <mxCell id="L-Nm37MA_dD64SVrKHD7-26" value="..." style="rounded=0;whiteSpace=wrap;html=1;" parent="1" vertex="1">
          <mxGeometry x="510" y="510" width="170" height="30" as="geometry" />
        </mxCell>
        <mxCell id="L-Nm37MA_dD64SVrKHD7-27" value="&lt;b&gt;add&lt;/b&gt; (Tensor): Tensor" style="rounded=0;whiteSpace=wrap;html=1;" parent="1" vertex="1">
          <mxGeometry x="510" y="260" width="170" height="30" as="geometry" />
        </mxCell>
        <mxCell id="L-Nm37MA_dD64SVrKHD7-28" value="&lt;b&gt;sub&lt;/b&gt; (Tensor): Tensor" style="rounded=0;whiteSpace=wrap;html=1;" parent="1" vertex="1">
          <mxGeometry x="510" y="290" width="170" height="30" as="geometry" />
        </mxCell>
        <mxCell id="L-Nm37MA_dD64SVrKHD7-29" value="&lt;b&gt;sin&lt;/b&gt; (Tensor): Tensor" style="rounded=0;whiteSpace=wrap;html=1;" parent="1" vertex="1">
          <mxGeometry x="510" y="320" width="170" height="30" as="geometry" />
        </mxCell>
        <mxCell id="L-Nm37MA_dD64SVrKHD7-30" value="..." style="rounded=0;whiteSpace=wrap;html=1;" parent="1" vertex="1">
          <mxGeometry x="510" y="350" width="170" height="30" as="geometry" />
        </mxCell>
        <mxCell id="L-Nm37MA_dD64SVrKHD7-31" value="TENSOR 3" style="html=1;whiteSpace=wrap;" parent="1" vertex="1">
          <mxGeometry x="510" y="790" width="170" height="25" as="geometry" />
        </mxCell>
        <mxCell id="L-Nm37MA_dD64SVrKHD7-32" value="TENSOR CLASS" style="text;html=1;align=center;verticalAlign=middle;whiteSpace=wrap;rounded=0;" parent="1" vertex="1">
          <mxGeometry x="345" y="305" width="100" height="30" as="geometry" />
        </mxCell>
        <mxCell id="L-Nm37MA_dD64SVrKHD7-33" style="edgeStyle=orthogonalEdgeStyle;rounded=0;orthogonalLoop=1;jettySize=auto;html=1;" parent="1" source="L-Nm37MA_dD64SVrKHD7-34" target="L-Nm37MA_dD64SVrKHD7-11" edge="1">
          <mxGeometry relative="1" as="geometry">
            <Array as="points">
              <mxPoint x="460" y="60" />
              <mxPoint x="460" y="60" />
            </Array>
          </mxGeometry>
        </mxCell>
        <mxCell id="L-Nm37MA_dD64SVrKHD7-34" value="" style="rounded=0;whiteSpace=wrap;html=1;" parent="1" vertex="1">
          <mxGeometry x="280" y="-30" width="400" height="250" as="geometry" />
        </mxCell>
        <mxCell id="L-Nm37MA_dD64SVrKHD7-35" value="&lt;b&gt;add&lt;/b&gt; (Node): Node" style="rounded=0;whiteSpace=wrap;html=1;" parent="1" vertex="1">
          <mxGeometry x="510" y="-30" width="170" height="20" as="geometry" />
        </mxCell>
        <mxCell id="L-Nm37MA_dD64SVrKHD7-36" value="&lt;b&gt;sub&lt;/b&gt; (Node): Node" style="rounded=0;whiteSpace=wrap;html=1;" parent="1" vertex="1">
          <mxGeometry x="510" y="-10" width="170" height="20" as="geometry" />
        </mxCell>
        <mxCell id="L-Nm37MA_dD64SVrKHD7-37" value="&lt;b&gt;sin&lt;/b&gt; (Node): Node" style="rounded=0;whiteSpace=wrap;html=1;" parent="1" vertex="1">
          <mxGeometry x="510" y="10" width="170" height="20" as="geometry" />
        </mxCell>
        <mxCell id="L-Nm37MA_dD64SVrKHD7-38" value="..." style="rounded=0;whiteSpace=wrap;html=1;" parent="1" vertex="1">
          <mxGeometry x="510" y="200" width="170" height="20" as="geometry" />
        </mxCell>
        <mxCell id="L-Nm37MA_dD64SVrKHD7-39" value="COMPUTATION GRAPH NODE" style="text;html=1;align=center;verticalAlign=middle;resizable=0;points=[];autosize=1;strokeColor=none;fillColor=none;" parent="1" vertex="1">
          <mxGeometry x="300" y="85" width="190" height="30" as="geometry" />
        </mxCell>
        <mxCell id="L-Nm37MA_dD64SVrKHD7-40" style="edgeStyle=orthogonalEdgeStyle;rounded=0;orthogonalLoop=1;jettySize=auto;html=1;" parent="1" source="L-Nm37MA_dD64SVrKHD7-34" target="L-Nm37MA_dD64SVrKHD7-34" edge="1">
          <mxGeometry relative="1" as="geometry">
            <Array as="points">
              <mxPoint x="240" y="30" />
            </Array>
          </mxGeometry>
        </mxCell>
        <mxCell id="L-Nm37MA_dD64SVrKHD7-41" value="COMPUTATION GRAPH" style="text;html=1;align=center;verticalAlign=middle;whiteSpace=wrap;rounded=0;" parent="1" vertex="1">
          <mxGeometry x="320" y="-145" width="150" height="30" as="geometry" />
        </mxCell>
        <mxCell id="L-Nm37MA_dD64SVrKHD7-42" value="&lt;b&gt;forward &lt;/b&gt;()" style="rounded=0;whiteSpace=wrap;html=1;" parent="1" vertex="1">
          <mxGeometry x="510" y="-190" width="170" height="30" as="geometry" />
        </mxCell>
        <mxCell id="L-Nm37MA_dD64SVrKHD7-43" value="&lt;b&gt;backward&lt;/b&gt;&amp;nbsp;()" style="rounded=0;whiteSpace=wrap;html=1;" parent="1" vertex="1">
          <mxGeometry x="510" y="-160" width="170" height="30" as="geometry" />
        </mxCell>
        <mxCell id="L-Nm37MA_dD64SVrKHD7-44" value="&lt;b&gt;zero_grad &lt;/b&gt;()" style="rounded=0;whiteSpace=wrap;html=1;" parent="1" vertex="1">
          <mxGeometry x="510" y="-130" width="170" height="30" as="geometry" />
        </mxCell>
        <mxCell id="L-Nm37MA_dD64SVrKHD7-45" value="topological ordering" style="rounded=0;whiteSpace=wrap;html=1;" parent="1" vertex="1">
          <mxGeometry x="510" y="-100" width="170" height="30" as="geometry" />
        </mxCell>
        <mxCell id="L-Nm37MA_dD64SVrKHD7-46" value="&lt;b&gt;forward &lt;/b&gt;()" style="rounded=0;whiteSpace=wrap;html=1;" parent="1" vertex="1">
          <mxGeometry x="510" y="30" width="170" height="20" as="geometry" />
        </mxCell>
        <mxCell id="L-Nm37MA_dD64SVrKHD7-47" value="&lt;b&gt;backward &lt;/b&gt;()" style="rounded=0;whiteSpace=wrap;html=1;" parent="1" vertex="1">
          <mxGeometry x="510" y="50" width="170" height="20" as="geometry" />
        </mxCell>
        <mxCell id="L-Nm37MA_dD64SVrKHD7-48" value="&lt;b&gt;zero_grad&amp;nbsp;&lt;/b&gt;()" style="rounded=0;whiteSpace=wrap;html=1;" parent="1" vertex="1">
          <mxGeometry x="510" y="70" width="170" height="20" as="geometry" />
        </mxCell>
        <mxCell id="L-Nm37MA_dD64SVrKHD7-49" value="&lt;b&gt;get_computation_graph &lt;/b&gt;()" style="rounded=0;whiteSpace=wrap;html=1;" parent="1" vertex="1">
          <mxGeometry x="510" y="90" width="170" height="20" as="geometry" />
        </mxCell>
        <mxCell id="L-Nm37MA_dD64SVrKHD7-50" value="value: Tensor" style="rounded=0;whiteSpace=wrap;html=1;" parent="1" vertex="1">
          <mxGeometry x="510" y="160" width="170" height="20" as="geometry" />
        </mxCell>
        <mxCell id="L-Nm37MA_dD64SVrKHD7-51" value="grad: Tensor" style="rounded=0;whiteSpace=wrap;html=1;" parent="1" vertex="1">
          <mxGeometry x="510" y="180" width="170" height="20" as="geometry" />
        </mxCell>
        <mxCell id="L-Nm37MA_dD64SVrKHD7-52" value="parents: Tensor[]" style="rounded=0;whiteSpace=wrap;html=1;" parent="1" vertex="1">
          <mxGeometry x="510" y="120" width="170" height="20" as="geometry" />
        </mxCell>
        <mxCell id="L-Nm37MA_dD64SVrKHD7-53" value="children: Tensor[]" style="rounded=0;whiteSpace=wrap;html=1;" parent="1" vertex="1">
          <mxGeometry x="510" y="140" width="170" height="20" as="geometry" />
        </mxCell>
        <mxCell id="L-Nm37MA_dD64SVrKHD7-54" value="&lt;span style=&quot;font-size: 17px;&quot;&gt;&lt;b&gt;TALOS&lt;/b&gt;&lt;/span&gt;&lt;div&gt;&lt;span style=&quot;font-size: 17px;&quot;&gt;&lt;b&gt;ARCHITECTURE&lt;/b&gt;&lt;/span&gt;&lt;/div&gt;" style="text;html=1;align=center;verticalAlign=middle;resizable=0;points=[];autosize=1;strokeColor=none;fillColor=none;" parent="1" vertex="1">
          <mxGeometry x="400" y="-270" width="160" height="50" as="geometry" />
        </mxCell>
        <mxCell id="L-Nm37MA_dD64SVrKHD7-55" style="edgeStyle=orthogonalEdgeStyle;rounded=0;orthogonalLoop=1;jettySize=auto;html=1;" parent="1" source="L-Nm37MA_dD64SVrKHD7-59" target="L-Nm37MA_dD64SVrKHD7-63" edge="1">
          <mxGeometry relative="1" as="geometry">
            <Array as="points">
              <mxPoint x="1220" y="-180" />
              <mxPoint x="980" y="-180" />
            </Array>
          </mxGeometry>
        </mxCell>
        <mxCell id="L-Nm37MA_dD64SVrKHD7-56" style="edgeStyle=orthogonalEdgeStyle;rounded=0;orthogonalLoop=1;jettySize=auto;html=1;" parent="1" source="L-Nm37MA_dD64SVrKHD7-59" target="L-Nm37MA_dD64SVrKHD7-85" edge="1">
          <mxGeometry relative="1" as="geometry">
            <Array as="points">
              <mxPoint x="1220" y="-180" />
              <mxPoint x="1470" y="-180" />
            </Array>
          </mxGeometry>
        </mxCell>
        <mxCell id="L-Nm37MA_dD64SVrKHD7-57" style="edgeStyle=orthogonalEdgeStyle;rounded=0;orthogonalLoop=1;jettySize=auto;html=1;" parent="1" source="L-Nm37MA_dD64SVrKHD7-59" target="L-Nm37MA_dD64SVrKHD7-65" edge="1">
          <mxGeometry relative="1" as="geometry">
            <Array as="points">
              <mxPoint x="1220" y="-180" />
              <mxPoint x="1140" y="-180" />
            </Array>
          </mxGeometry>
        </mxCell>
        <mxCell id="L-Nm37MA_dD64SVrKHD7-58" style="edgeStyle=orthogonalEdgeStyle;rounded=0;orthogonalLoop=1;jettySize=auto;html=1;" parent="1" source="L-Nm37MA_dD64SVrKHD7-59" target="L-Nm37MA_dD64SVrKHD7-83" edge="1">
          <mxGeometry relative="1" as="geometry">
            <Array as="points">
              <mxPoint x="1220" y="-180" />
              <mxPoint x="1300" y="-180" />
            </Array>
          </mxGeometry>
        </mxCell>
        <mxCell id="L-Nm37MA_dD64SVrKHD7-59" value="ALL OPERATIONS" style="rounded=0;whiteSpace=wrap;html=1;" parent="1" vertex="1">
          <mxGeometry x="1160" y="-270" width="120" height="30" as="geometry" />
        </mxCell>
        <mxCell id="L-Nm37MA_dD64SVrKHD7-60" style="edgeStyle=orthogonalEdgeStyle;rounded=0;orthogonalLoop=1;jettySize=auto;html=1;" parent="1" source="L-Nm37MA_dD64SVrKHD7-63" target="L-Nm37MA_dD64SVrKHD7-68" edge="1">
          <mxGeometry relative="1" as="geometry" />
        </mxCell>
        <mxCell id="L-Nm37MA_dD64SVrKHD7-61" style="edgeStyle=orthogonalEdgeStyle;rounded=0;orthogonalLoop=1;jettySize=auto;html=1;" parent="1" source="L-Nm37MA_dD64SVrKHD7-63" target="L-Nm37MA_dD64SVrKHD7-71" edge="1">
          <mxGeometry relative="1" as="geometry">
            <Array as="points">
              <mxPoint x="980" y="-80" />
              <mxPoint x="1140" y="-80" />
            </Array>
          </mxGeometry>
        </mxCell>
        <mxCell id="L-Nm37MA_dD64SVrKHD7-62" style="edgeStyle=orthogonalEdgeStyle;rounded=0;orthogonalLoop=1;jettySize=auto;html=1;" parent="1" source="L-Nm37MA_dD64SVrKHD7-63" target="L-Nm37MA_dD64SVrKHD7-74" edge="1">
          <mxGeometry relative="1" as="geometry">
            <Array as="points">
              <mxPoint x="980" y="-80" />
              <mxPoint x="820" y="-80" />
            </Array>
          </mxGeometry>
        </mxCell>
        <mxCell id="L-Nm37MA_dD64SVrKHD7-63" value="UNARY OPS" style="rounded=0;whiteSpace=wrap;html=1;" parent="1" vertex="1">
          <mxGeometry x="920" y="-160" width="120" height="30" as="geometry" />
        </mxCell>
        <mxCell id="L-Nm37MA_dD64SVrKHD7-64" style="edgeStyle=orthogonalEdgeStyle;rounded=0;orthogonalLoop=1;jettySize=auto;html=1;" parent="1" source="L-Nm37MA_dD64SVrKHD7-85" target="L-Nm37MA_dD64SVrKHD7-77" edge="1">
          <mxGeometry relative="1" as="geometry" />
        </mxCell>
        <mxCell id="L-Nm37MA_dD64SVrKHD7-65" value="REDUCE OPS" style="rounded=0;whiteSpace=wrap;html=1;" parent="1" vertex="1">
          <mxGeometry x="1080" y="-160" width="120" height="30" as="geometry" />
        </mxCell>
        <mxCell id="L-Nm37MA_dD64SVrKHD7-66" style="edgeStyle=orthogonalEdgeStyle;rounded=0;orthogonalLoop=1;jettySize=auto;html=1;" parent="1" source="L-Nm37MA_dD64SVrKHD7-68" target="L-Nm37MA_dD64SVrKHD7-86" edge="1">
          <mxGeometry relative="1" as="geometry" />
        </mxCell>
        <mxCell id="L-Nm37MA_dD64SVrKHD7-67" style="edgeStyle=orthogonalEdgeStyle;rounded=0;orthogonalLoop=1;jettySize=auto;html=1;" parent="1" source="L-Nm37MA_dD64SVrKHD7-68" target="L-Nm37MA_dD64SVrKHD7-87" edge="1">
          <mxGeometry relative="1" as="geometry" />
        </mxCell>
        <mxCell id="L-Nm37MA_dD64SVrKHD7-68" value="BROADCASTING" style="rounded=0;whiteSpace=wrap;html=1;" parent="1" vertex="1">
          <mxGeometry x="920" y="-40" width="120" height="30" as="geometry" />
        </mxCell>
        <mxCell id="L-Nm37MA_dD64SVrKHD7-69" style="edgeStyle=orthogonalEdgeStyle;rounded=0;orthogonalLoop=1;jettySize=auto;html=1;" parent="1" source="L-Nm37MA_dD64SVrKHD7-71" target="L-Nm37MA_dD64SVrKHD7-88" edge="1">
          <mxGeometry relative="1" as="geometry" />
        </mxCell>
        <mxCell id="L-Nm37MA_dD64SVrKHD7-70" style="edgeStyle=orthogonalEdgeStyle;rounded=0;orthogonalLoop=1;jettySize=auto;html=1;" parent="1" source="L-Nm37MA_dD64SVrKHD7-71" target="L-Nm37MA_dD64SVrKHD7-89" edge="1">
          <mxGeometry relative="1" as="geometry" />
        </mxCell>
        <mxCell id="L-Nm37MA_dD64SVrKHD7-71" value="DEBROADCASTING" style="rounded=0;whiteSpace=wrap;html=1;" parent="1" vertex="1">
          <mxGeometry x="1080" y="-40" width="120" height="30" as="geometry" />
        </mxCell>
        <mxCell id="L-Nm37MA_dD64SVrKHD7-72" style="edgeStyle=orthogonalEdgeStyle;rounded=0;orthogonalLoop=1;jettySize=auto;html=1;" parent="1" source="L-Nm37MA_dD64SVrKHD7-74" target="L-Nm37MA_dD64SVrKHD7-81" edge="1">
          <mxGeometry relative="1" as="geometry" />
        </mxCell>
        <mxCell id="L-Nm37MA_dD64SVrKHD7-73" style="edgeStyle=orthogonalEdgeStyle;rounded=0;orthogonalLoop=1;jettySize=auto;html=1;" parent="1" source="L-Nm37MA_dD64SVrKHD7-74" target="L-Nm37MA_dD64SVrKHD7-82" edge="1">
          <mxGeometry relative="1" as="geometry" />
        </mxCell>
        <mxCell id="L-Nm37MA_dD64SVrKHD7-74" value="PAIRWISE" style="rounded=0;whiteSpace=wrap;html=1;" parent="1" vertex="1">
          <mxGeometry x="760" y="-40" width="120" height="30" as="geometry" />
        </mxCell>
        <mxCell id="L-Nm37MA_dD64SVrKHD7-75" style="edgeStyle=orthogonalEdgeStyle;rounded=0;orthogonalLoop=1;jettySize=auto;html=1;" parent="1" source="L-Nm37MA_dD64SVrKHD7-77" target="L-Nm37MA_dD64SVrKHD7-90" edge="1">
          <mxGeometry relative="1" as="geometry" />
        </mxCell>
        <mxCell id="L-Nm37MA_dD64SVrKHD7-76" style="edgeStyle=orthogonalEdgeStyle;rounded=0;orthogonalLoop=1;jettySize=auto;html=1;" parent="1" source="L-Nm37MA_dD64SVrKHD7-77" target="L-Nm37MA_dD64SVrKHD7-91" edge="1">
          <mxGeometry relative="1" as="geometry" />
        </mxCell>
        <mxCell id="L-Nm37MA_dD64SVrKHD7-77" value="BROADCASTING" style="rounded=0;whiteSpace=wrap;html=1;" parent="1" vertex="1">
          <mxGeometry x="1320" y="-40" width="120" height="30" as="geometry" />
        </mxCell>
        <mxCell id="L-Nm37MA_dD64SVrKHD7-78" style="edgeStyle=orthogonalEdgeStyle;rounded=0;orthogonalLoop=1;jettySize=auto;html=1;" parent="1" source="L-Nm37MA_dD64SVrKHD7-80" target="L-Nm37MA_dD64SVrKHD7-92" edge="1">
          <mxGeometry relative="1" as="geometry" />
        </mxCell>
        <mxCell id="L-Nm37MA_dD64SVrKHD7-79" style="edgeStyle=orthogonalEdgeStyle;rounded=0;orthogonalLoop=1;jettySize=auto;html=1;" parent="1" source="L-Nm37MA_dD64SVrKHD7-80" target="L-Nm37MA_dD64SVrKHD7-93" edge="1">
          <mxGeometry relative="1" as="geometry" />
        </mxCell>
        <mxCell id="L-Nm37MA_dD64SVrKHD7-80" value="DEBROADCASTING" style="rounded=0;whiteSpace=wrap;html=1;" parent="1" vertex="1">
          <mxGeometry x="1480" y="-40" width="120" height="30" as="geometry" />
        </mxCell>
        <mxCell id="L-Nm37MA_dD64SVrKHD7-81" value="DIRECT" style="rounded=0;whiteSpace=wrap;html=1;direction=east;rotation=270;" parent="1" vertex="1">
          <mxGeometry x="730" y="100" width="120" height="30" as="geometry" />
        </mxCell>
        <mxCell id="L-Nm37MA_dD64SVrKHD7-82" value="ACCUMULATIVE" style="rounded=0;whiteSpace=wrap;html=1;direction=east;rotation=270;" parent="1" vertex="1">
          <mxGeometry x="790" y="100" width="120" height="30" as="geometry" />
        </mxCell>
        <mxCell id="L-Nm37MA_dD64SVrKHD7-83" value="MATMUL/DOT" style="rounded=0;whiteSpace=wrap;html=1;" parent="1" vertex="1">
          <mxGeometry x="1240" y="-160" width="120" height="30" as="geometry" />
        </mxCell>
        <mxCell id="L-Nm37MA_dD64SVrKHD7-84" style="edgeStyle=orthogonalEdgeStyle;rounded=0;orthogonalLoop=1;jettySize=auto;html=1;" parent="1" source="L-Nm37MA_dD64SVrKHD7-85" target="L-Nm37MA_dD64SVrKHD7-80" edge="1">
          <mxGeometry relative="1" as="geometry" />
        </mxCell>
        <mxCell id="L-Nm37MA_dD64SVrKHD7-85" value="BINARY OPS" style="rounded=0;whiteSpace=wrap;html=1;" parent="1" vertex="1">
          <mxGeometry x="1400" y="-160" width="120" height="30" as="geometry" />
        </mxCell>
        <mxCell id="L-Nm37MA_dD64SVrKHD7-86" value="&lt;span style=&quot;color: rgb(0, 0, 0); font-family: Helvetica; font-size: 12px; font-style: normal; font-variant-ligatures: normal; font-variant-caps: normal; font-weight: 400; letter-spacing: normal; orphans: 2; text-align: center; text-indent: 0px; text-transform: none; widows: 2; word-spacing: 0px; -webkit-text-stroke-width: 0px; white-space: normal; background-color: rgb(251, 251, 251); text-decoration-thickness: initial; text-decoration-style: initial; text-decoration-color: initial; display: inline !important; float: none;&quot;&gt;DIRECT&lt;/span&gt;" style="rounded=0;whiteSpace=wrap;html=1;direction=east;rotation=270;" parent="1" vertex="1">
          <mxGeometry x="890" y="100" width="120" height="30" as="geometry" />
        </mxCell>
        <mxCell id="L-Nm37MA_dD64SVrKHD7-87" value="&lt;span style=&quot;color: rgb(0, 0, 0); font-family: Helvetica; font-size: 12px; font-style: normal; font-variant-ligatures: normal; font-variant-caps: normal; font-weight: 400; letter-spacing: normal; orphans: 2; text-align: center; text-indent: 0px; text-transform: none; widows: 2; word-spacing: 0px; -webkit-text-stroke-width: 0px; white-space: normal; background-color: rgb(251, 251, 251); text-decoration-thickness: initial; text-decoration-style: initial; text-decoration-color: initial; display: inline !important; float: none;&quot;&gt;ACCUMULATIVE&lt;/span&gt;" style="rounded=0;whiteSpace=wrap;html=1;direction=east;rotation=270;" parent="1" vertex="1">
          <mxGeometry x="950" y="100" width="120" height="30" as="geometry" />
        </mxCell>
        <mxCell id="L-Nm37MA_dD64SVrKHD7-88" value="&lt;span style=&quot;color: rgb(0, 0, 0); font-family: Helvetica; font-size: 12px; font-style: normal; font-variant-ligatures: normal; font-variant-caps: normal; font-weight: 400; letter-spacing: normal; orphans: 2; text-align: center; text-indent: 0px; text-transform: none; widows: 2; word-spacing: 0px; -webkit-text-stroke-width: 0px; white-space: normal; background-color: rgb(251, 251, 251); text-decoration-thickness: initial; text-decoration-style: initial; text-decoration-color: initial; display: inline !important; float: none;&quot;&gt;DIRECT&lt;/span&gt;" style="rounded=0;whiteSpace=wrap;html=1;direction=east;rotation=270;" parent="1" vertex="1">
          <mxGeometry x="1050" y="100" width="120" height="30" as="geometry" />
        </mxCell>
        <mxCell id="L-Nm37MA_dD64SVrKHD7-89" value="&lt;span style=&quot;color: rgb(0, 0, 0); font-family: Helvetica; font-size: 12px; font-style: normal; font-variant-ligatures: normal; font-variant-caps: normal; font-weight: 400; letter-spacing: normal; orphans: 2; text-align: center; text-indent: 0px; text-transform: none; widows: 2; word-spacing: 0px; -webkit-text-stroke-width: 0px; white-space: normal; background-color: rgb(251, 251, 251); text-decoration-thickness: initial; text-decoration-style: initial; text-decoration-color: initial; display: inline !important; float: none;&quot;&gt;ACCUMULATIVE&lt;/span&gt;" style="rounded=0;whiteSpace=wrap;html=1;direction=east;rotation=270;" parent="1" vertex="1">
          <mxGeometry x="1110" y="100" width="120" height="30" as="geometry" />
        </mxCell>
        <mxCell id="L-Nm37MA_dD64SVrKHD7-90" value="&lt;span style=&quot;color: rgb(0, 0, 0); font-family: Helvetica; font-size: 12px; font-style: normal; font-variant-ligatures: normal; font-variant-caps: normal; font-weight: 400; letter-spacing: normal; orphans: 2; text-align: center; text-indent: 0px; text-transform: none; widows: 2; word-spacing: 0px; -webkit-text-stroke-width: 0px; white-space: normal; background-color: rgb(251, 251, 251); text-decoration-thickness: initial; text-decoration-style: initial; text-decoration-color: initial; display: inline !important; float: none;&quot;&gt;DIRECT&lt;/span&gt;" style="rounded=0;whiteSpace=wrap;html=1;direction=east;rotation=270;" parent="1" vertex="1">
          <mxGeometry x="1290" y="100" width="120" height="30" as="geometry" />
        </mxCell>
        <mxCell id="L-Nm37MA_dD64SVrKHD7-91" value="&lt;span style=&quot;color: rgb(0, 0, 0); font-family: Helvetica; font-size: 12px; font-style: normal; font-variant-ligatures: normal; font-variant-caps: normal; font-weight: 400; letter-spacing: normal; orphans: 2; text-align: center; text-indent: 0px; text-transform: none; widows: 2; word-spacing: 0px; -webkit-text-stroke-width: 0px; white-space: normal; background-color: rgb(251, 251, 251); text-decoration-thickness: initial; text-decoration-style: initial; text-decoration-color: initial; display: inline !important; float: none;&quot;&gt;ACCUMULATIVE&lt;/span&gt;" style="rounded=0;whiteSpace=wrap;html=1;direction=east;rotation=270;" parent="1" vertex="1">
          <mxGeometry x="1350" y="100" width="120" height="30" as="geometry" />
        </mxCell>
        <mxCell id="L-Nm37MA_dD64SVrKHD7-92" value="&lt;span style=&quot;color: rgb(0, 0, 0); font-family: Helvetica; font-size: 12px; font-style: normal; font-variant-ligatures: normal; font-variant-caps: normal; font-weight: 400; letter-spacing: normal; orphans: 2; text-align: center; text-indent: 0px; text-transform: none; widows: 2; word-spacing: 0px; -webkit-text-stroke-width: 0px; white-space: normal; background-color: rgb(251, 251, 251); text-decoration-thickness: initial; text-decoration-style: initial; text-decoration-color: initial; display: inline !important; float: none;&quot;&gt;DIRECT&lt;/span&gt;" style="rounded=0;whiteSpace=wrap;html=1;direction=east;rotation=270;" parent="1" vertex="1">
          <mxGeometry x="1450" y="100" width="120" height="30" as="geometry" />
        </mxCell>
        <mxCell id="L-Nm37MA_dD64SVrKHD7-93" value="&lt;span style=&quot;color: rgb(0, 0, 0); font-family: Helvetica; font-size: 12px; font-style: normal; font-variant-ligatures: normal; font-variant-caps: normal; font-weight: 400; letter-spacing: normal; orphans: 2; text-align: center; text-indent: 0px; text-transform: none; widows: 2; word-spacing: 0px; -webkit-text-stroke-width: 0px; white-space: normal; background-color: rgb(251, 251, 251); text-decoration-thickness: initial; text-decoration-style: initial; text-decoration-color: initial; display: inline !important; float: none;&quot;&gt;ACCUMULATIVE&lt;/span&gt;" style="rounded=0;whiteSpace=wrap;html=1;direction=east;rotation=270;" parent="1" vertex="1">
          <mxGeometry x="1510" y="100" width="120" height="30" as="geometry" />
        </mxCell>
        <mxCell id="L-Nm37MA_dD64SVrKHD7-94" value="&lt;font style=&quot;font-size: 17px;&quot;&gt;&lt;b&gt;CORE&lt;/b&gt;&lt;/font&gt;&lt;div&gt;&lt;font style=&quot;font-size: 17px;&quot;&gt;&lt;b&gt;INSTRUCTION SET ARCHITECTURE&lt;/b&gt;&lt;/font&gt;&lt;/div&gt;" style="text;html=1;align=center;verticalAlign=middle;resizable=0;points=[];autosize=1;strokeColor=none;fillColor=none;" parent="1" vertex="1">
          <mxGeometry x="1060" y="-350" width="320" height="50" as="geometry" />
        </mxCell>
        <mxCell id="L-Nm37MA_dD64SVrKHD7-95" value="&lt;div style=&quot;&quot;&gt;&lt;span style=&quot;background-color: initial;&quot;&gt;&lt;b&gt;DIRECT ASSIGNMENT:&lt;/b&gt;&lt;/span&gt;&lt;/div&gt;" style="text;html=1;align=right;verticalAlign=middle;resizable=0;points=[];autosize=1;strokeColor=none;fillColor=none;" parent="1" vertex="1">
          <mxGeometry x="1060" y="200" width="150" height="30" as="geometry" />
        </mxCell>
        <mxCell id="L-Nm37MA_dD64SVrKHD7-96" value="&lt;div style=&quot;&quot;&gt;&lt;span style=&quot;background-color: initial;&quot;&gt;destination[i] = result[i]&lt;/span&gt;&lt;/div&gt;" style="text;html=1;align=left;verticalAlign=middle;resizable=0;points=[];autosize=1;strokeColor=none;fillColor=none;" parent="1" vertex="1">
          <mxGeometry x="1230" y="200" width="140" height="30" as="geometry" />
        </mxCell>
        <mxCell id="L-Nm37MA_dD64SVrKHD7-97" value="&lt;span style=&quot;&quot;&gt;destination[i] += result[i]&lt;/span&gt;" style="text;html=1;align=left;verticalAlign=middle;resizable=0;points=[];autosize=1;strokeColor=none;fillColor=none;" parent="1" vertex="1">
          <mxGeometry x="1230" y="223" width="150" height="30" as="geometry" />
        </mxCell>
        <mxCell id="L-Nm37MA_dD64SVrKHD7-98" value="&lt;b style=&quot;&quot;&gt;ACCUMULATIVE ASSIGNMENT:&lt;/b&gt;" style="text;html=1;align=right;verticalAlign=middle;resizable=0;points=[];autosize=1;strokeColor=none;fillColor=none;" parent="1" vertex="1">
          <mxGeometry x="1010" y="223" width="200" height="30" as="geometry" />
        </mxCell>
        <mxCell id="L-Nm37MA_dD64SVrKHD7-99" value="&lt;div&gt;BROADCASTING_BINARY_OP&lt;/div&gt;&lt;div&gt;&amp;nbsp; &amp;nbsp; add_brc: a + b&lt;/div&gt;&lt;div&gt;&amp;nbsp; &amp;nbsp; sub_brc: a - b&lt;/div&gt;&lt;div&gt;&amp;nbsp; &amp;nbsp; mul_brc: a * b&lt;/div&gt;&lt;div&gt;&amp;nbsp; &amp;nbsp; div_brc: a / b&lt;/div&gt;&lt;div&gt;&amp;nbsp; &amp;nbsp; pow_brc: pow(a, b)&lt;/div&gt;" style="rounded=0;whiteSpace=wrap;html=1;align=left;spacing=10;" parent="1" vertex="1">
          <mxGeometry x="965" y="290" width="210" height="110" as="geometry" />
        </mxCell>
        <mxCell id="L-Nm37MA_dD64SVrKHD7-100" value="&lt;div&gt;DEBROADCASTING_UNARY_OP&lt;/div&gt;&lt;div&gt;&amp;nbsp; &amp;nbsp; sin_dbrc:&amp;nbsp; &amp;nbsp; &amp;nbsp; &amp;nbsp; sin(a)&lt;/div&gt;&lt;div&gt;&amp;nbsp; &amp;nbsp; cos_dbrc:&amp;nbsp; &amp;nbsp; &amp;nbsp; &amp;nbsp; cos(a)&lt;/div&gt;&lt;div&gt;&amp;nbsp; &amp;nbsp; tan_dbrc:&amp;nbsp; &amp;nbsp; &amp;nbsp; &amp;nbsp; tan(a)&lt;/div&gt;&lt;div&gt;&amp;nbsp; &amp;nbsp; asin_dbrc:&amp;nbsp; &amp;nbsp; &amp;nbsp; &amp;nbsp;asin(a)&lt;/div&gt;&lt;div&gt;&amp;nbsp; &amp;nbsp; acos_dbrc:&amp;nbsp; &amp;nbsp; &amp;nbsp; &amp;nbsp;acos(a)&lt;/div&gt;&lt;div&gt;&amp;nbsp; &amp;nbsp; atan_dbrc:&amp;nbsp; &amp;nbsp; &amp;nbsp; &amp;nbsp;atan(a)&lt;/div&gt;&lt;div&gt;&amp;nbsp; &amp;nbsp; sinh_dbrc:&amp;nbsp; &amp;nbsp; &amp;nbsp; &amp;nbsp;sinh(a)&lt;/div&gt;&lt;div&gt;&amp;nbsp; &amp;nbsp; cosh_dbrc:&amp;nbsp; &amp;nbsp; &amp;nbsp; &amp;nbsp;cosh(a)&lt;/div&gt;&lt;div&gt;&amp;nbsp; &amp;nbsp; tanh_dbrc:&amp;nbsp; &amp;nbsp; &amp;nbsp; &amp;nbsp;tanh(a)&lt;/div&gt;&lt;div&gt;&amp;nbsp; &amp;nbsp; exp_dbrc:&amp;nbsp; &amp;nbsp; &amp;nbsp; &amp;nbsp; exp(a)&lt;/div&gt;&lt;div&gt;&amp;nbsp; &amp;nbsp; log_dbrc:&amp;nbsp; &amp;nbsp; &amp;nbsp; &amp;nbsp; log(a)&lt;/div&gt;&lt;div&gt;&amp;nbsp; &amp;nbsp; log2_dbrc:&amp;nbsp; &amp;nbsp; &amp;nbsp; &amp;nbsp;log2(a)&lt;/div&gt;&lt;div&gt;&amp;nbsp; &amp;nbsp; log10_dbrc:&amp;nbsp; &amp;nbsp; &amp;nbsp; log10(a)&lt;/div&gt;&lt;div&gt;&amp;nbsp; &amp;nbsp; invsqrt_dbrc:&amp;nbsp; &amp;nbsp; fast_inv_sqrt(a)&lt;/div&gt;&lt;div&gt;&amp;nbsp; &amp;nbsp; sqrt_dbrc:&amp;nbsp; &amp;nbsp; &amp;nbsp; &amp;nbsp;sqrt(a)&lt;/div&gt;&lt;div&gt;&amp;nbsp; &amp;nbsp; ceil_dbrc:&amp;nbsp; &amp;nbsp; &amp;nbsp; &amp;nbsp;ceil(a)&lt;/div&gt;&lt;div&gt;&amp;nbsp; &amp;nbsp; floor_dbrc:&amp;nbsp; &amp;nbsp; &amp;nbsp; floor(a)&lt;/div&gt;&lt;div&gt;&amp;nbsp; &amp;nbsp; abs_dbrc:&amp;nbsp; &amp;nbsp; &amp;nbsp; &amp;nbsp; fabs(a)&lt;/div&gt;&lt;div&gt;&amp;nbsp; &amp;nbsp; negate_dbrc:&amp;nbsp; &amp;nbsp; &amp;nbsp;-a&lt;/div&gt;&lt;div&gt;&amp;nbsp; &amp;nbsp; reciprocal_dbrc: 1. / a&lt;/div&gt;&lt;div&gt;&amp;nbsp; &amp;nbsp; relu_dbrc:&amp;nbsp; &amp;nbsp; &amp;nbsp; &amp;nbsp;a &amp;lt; 0 ? 0 : a&lt;/div&gt;&lt;div&gt;&amp;nbsp; &amp;nbsp; binstep_dbrc:&amp;nbsp; &amp;nbsp; a &amp;lt; 0 ? 0 : 1&lt;/div&gt;&lt;div&gt;&amp;nbsp; &amp;nbsp; logistic_dbrc:&amp;nbsp; &amp;nbsp;1. / (exp(-a) + 1.)&lt;/div&gt;" style="rounded=0;whiteSpace=wrap;html=1;align=left;spacing=10;" parent="1" vertex="1">
          <mxGeometry x="1310" y="420" width="210" height="370" as="geometry" />
        </mxCell>
        <mxCell id="L-Nm37MA_dD64SVrKHD7-101" value="&lt;div&gt;BROADCASTING_UNARY_OP&lt;/div&gt;&lt;div&gt;&amp;nbsp; &amp;nbsp; sin_brc:&amp;nbsp; &amp;nbsp; &amp;nbsp; &amp;nbsp; sin(a)&lt;/div&gt;&lt;div&gt;&amp;nbsp; &amp;nbsp; cos_brc:&amp;nbsp; &amp;nbsp; &amp;nbsp; &amp;nbsp; cos(a)&lt;/div&gt;&lt;div&gt;&amp;nbsp; &amp;nbsp; tan_brc:&amp;nbsp; &amp;nbsp; &amp;nbsp; &amp;nbsp; tan(a)&lt;/div&gt;&lt;div&gt;&amp;nbsp; &amp;nbsp; asin_brc:&amp;nbsp; &amp;nbsp; &amp;nbsp; &amp;nbsp;asin(a)&lt;/div&gt;&lt;div&gt;&amp;nbsp; &amp;nbsp; acos_brc:&amp;nbsp; &amp;nbsp; &amp;nbsp; &amp;nbsp;acos(a)&lt;/div&gt;&lt;div&gt;&amp;nbsp; &amp;nbsp; atan_brc:&amp;nbsp; &amp;nbsp; &amp;nbsp; &amp;nbsp;atan(a)&lt;/div&gt;&lt;div&gt;&amp;nbsp; &amp;nbsp; sinh_brc:&amp;nbsp; &amp;nbsp; &amp;nbsp; &amp;nbsp;sinh(a)&lt;/div&gt;&lt;div&gt;&amp;nbsp; &amp;nbsp; cosh_brc:&amp;nbsp; &amp;nbsp; &amp;nbsp; &amp;nbsp;cosh(a)&lt;/div&gt;&lt;div&gt;&amp;nbsp; &amp;nbsp; tanh_brc:&amp;nbsp; &amp;nbsp; &amp;nbsp; &amp;nbsp;tanh(a)&lt;/div&gt;&lt;div&gt;&amp;nbsp; &amp;nbsp; exp_brc:&amp;nbsp; &amp;nbsp; &amp;nbsp; &amp;nbsp; exp(a)&lt;/div&gt;&lt;div&gt;&amp;nbsp; &amp;nbsp; log_brc:&amp;nbsp; &amp;nbsp; &amp;nbsp; &amp;nbsp; log(a)&lt;/div&gt;&lt;div&gt;&amp;nbsp; &amp;nbsp; log2_brc:&amp;nbsp; &amp;nbsp; &amp;nbsp; &amp;nbsp;log2(a)&lt;/div&gt;&lt;div&gt;&amp;nbsp; &amp;nbsp; log10_brc:&amp;nbsp; &amp;nbsp; &amp;nbsp; log10(a)&lt;/div&gt;&lt;div&gt;&amp;nbsp; &amp;nbsp; invsqrt_brc:&amp;nbsp; &amp;nbsp; fast_inv_sqrt(a)&lt;/div&gt;&lt;div&gt;&amp;nbsp; &amp;nbsp; sqrt_brc:&amp;nbsp; &amp;nbsp; &amp;nbsp; &amp;nbsp;sqrt(a)&lt;/div&gt;&lt;div&gt;&amp;nbsp; &amp;nbsp; ceil_brc:&amp;nbsp; &amp;nbsp; &amp;nbsp; &amp;nbsp;ceil(a)&lt;/div&gt;&lt;div&gt;&amp;nbsp; &amp;nbsp; floor_brc:&amp;nbsp; &amp;nbsp; &amp;nbsp; floor(a)&lt;/div&gt;&lt;div&gt;&amp;nbsp; &amp;nbsp; abs_brc:&amp;nbsp; &amp;nbsp; &amp;nbsp; &amp;nbsp; fabs(a)&lt;/div&gt;&lt;div&gt;&amp;nbsp; &amp;nbsp; negate_brc:&amp;nbsp; &amp;nbsp; &amp;nbsp;-a&lt;/div&gt;&lt;div&gt;&amp;nbsp; &amp;nbsp; reciprocal_brc: 1. / a&lt;/div&gt;&lt;div&gt;&amp;nbsp; &amp;nbsp; relu_brc:&amp;nbsp; &amp;nbsp; &amp;nbsp; &amp;nbsp;a &amp;lt; 0 ? 0 : a&lt;/div&gt;&lt;div&gt;&amp;nbsp; &amp;nbsp; binstep_brc:&amp;nbsp; &amp;nbsp; a &amp;lt; 0 ? 0 : 1&lt;/div&gt;&lt;div&gt;&amp;nbsp; &amp;nbsp; logistic_brc:&amp;nbsp; &amp;nbsp;1. / (exp(-a) + 1.)&lt;/div&gt;" style="rounded=0;whiteSpace=wrap;html=1;align=left;spacing=10;" parent="1" vertex="1">
          <mxGeometry x="1080" y="420" width="210" height="370" as="geometry" />
        </mxCell>
        <mxCell id="L-Nm37MA_dD64SVrKHD7-102" value="&lt;div&gt;PAIRWISE_UNARY_OP&lt;/div&gt;&lt;div&gt;&amp;nbsp; &amp;nbsp; sin_prw:&amp;nbsp; &amp;nbsp; &amp;nbsp; &amp;nbsp; sin(a)&lt;/div&gt;&lt;div&gt;&amp;nbsp; &amp;nbsp; cos_prw:&amp;nbsp; &amp;nbsp; &amp;nbsp; &amp;nbsp; cos(a)&lt;/div&gt;&lt;div&gt;&amp;nbsp; &amp;nbsp; tan_prw:&amp;nbsp; &amp;nbsp; &amp;nbsp; &amp;nbsp; tan(a)&lt;/div&gt;&lt;div&gt;&amp;nbsp; &amp;nbsp; asin_prw:&amp;nbsp; &amp;nbsp; &amp;nbsp; &amp;nbsp;asin(a)&lt;/div&gt;&lt;div&gt;&amp;nbsp; &amp;nbsp; acos_prw:&amp;nbsp; &amp;nbsp; &amp;nbsp; &amp;nbsp;acos(a)&lt;/div&gt;&lt;div&gt;&amp;nbsp; &amp;nbsp; atan_prw:&amp;nbsp; &amp;nbsp; &amp;nbsp; &amp;nbsp;atan(a)&lt;/div&gt;&lt;div&gt;&amp;nbsp; &amp;nbsp; sinh_prw:&amp;nbsp; &amp;nbsp; &amp;nbsp; &amp;nbsp;sinh(a)&lt;/div&gt;&lt;div&gt;&amp;nbsp; &amp;nbsp; cosh_prw:&amp;nbsp; &amp;nbsp; &amp;nbsp; &amp;nbsp;cosh(a)&lt;/div&gt;&lt;div&gt;&amp;nbsp; &amp;nbsp; tanh_prw:&amp;nbsp; &amp;nbsp; &amp;nbsp; &amp;nbsp;tanh(a)&lt;/div&gt;&lt;div&gt;&amp;nbsp; &amp;nbsp; exp_prw:&amp;nbsp; &amp;nbsp; &amp;nbsp; &amp;nbsp; exp(a)&lt;/div&gt;&lt;div&gt;&amp;nbsp; &amp;nbsp; log_prw:&amp;nbsp; &amp;nbsp; &amp;nbsp; &amp;nbsp; log(a)&lt;/div&gt;&lt;div&gt;&amp;nbsp; &amp;nbsp; log2_prw:&amp;nbsp; &amp;nbsp; &amp;nbsp; &amp;nbsp;log2(a)&lt;/div&gt;&lt;div&gt;&amp;nbsp; &amp;nbsp; log10_prw:&amp;nbsp; &amp;nbsp; &amp;nbsp; log10(a)&lt;/div&gt;&lt;div&gt;&amp;nbsp; &amp;nbsp; invsqrt_prw:&amp;nbsp; &amp;nbsp; fast_inv_sqrt(a)&lt;/div&gt;&lt;div&gt;&amp;nbsp; &amp;nbsp; sqrt_prw:&amp;nbsp; &amp;nbsp; &amp;nbsp; &amp;nbsp;sqrt(a)&lt;/div&gt;&lt;div&gt;&amp;nbsp; &amp;nbsp; ceil_prw:&amp;nbsp; &amp;nbsp; &amp;nbsp; &amp;nbsp;ceil(a)&lt;/div&gt;&lt;div&gt;&amp;nbsp; &amp;nbsp; floor_prw:&amp;nbsp; &amp;nbsp; &amp;nbsp; floor(a)&lt;/div&gt;&lt;div&gt;&amp;nbsp; &amp;nbsp; abs_prw:&amp;nbsp; &amp;nbsp; &amp;nbsp; &amp;nbsp; fabs(a)&lt;/div&gt;&lt;div&gt;&amp;nbsp; &amp;nbsp; negate_prw:&amp;nbsp; &amp;nbsp; &amp;nbsp;-a&lt;/div&gt;&lt;div&gt;&amp;nbsp; &amp;nbsp; reciprocal_prw: 1. / a&lt;/div&gt;&lt;div&gt;&amp;nbsp; &amp;nbsp; relu_prw:&amp;nbsp; &amp;nbsp; &amp;nbsp; &amp;nbsp;a &amp;lt; 0 ? 0 : a&lt;/div&gt;&lt;div&gt;&amp;nbsp; &amp;nbsp; binstep_prw:&amp;nbsp; &amp;nbsp; a &amp;lt; 0 ? 0 : 1&lt;/div&gt;&lt;div&gt;&amp;nbsp; &amp;nbsp; logistic_prw:&amp;nbsp; &amp;nbsp;1. / (exp(-a) + 1.)&lt;/div&gt;" style="rounded=0;whiteSpace=wrap;html=1;align=left;spacing=10;" parent="1" vertex="1">
          <mxGeometry x="850" y="420" width="210" height="370" as="geometry" />
        </mxCell>
        <mxCell id="L-Nm37MA_dD64SVrKHD7-103" value="&lt;div&gt;DEBROADCASTING_BINARY_OP&lt;/div&gt;&lt;div&gt;&amp;nbsp; &amp;nbsp; add_dbrc: a + b&lt;/div&gt;&lt;div&gt;&amp;nbsp; &amp;nbsp; sub_dbrc: a - b&lt;/div&gt;&lt;div&gt;&amp;nbsp; &amp;nbsp; mul_dbrc: a * b&lt;/div&gt;&lt;div&gt;&amp;nbsp; &amp;nbsp; div_dbrc: a / b&lt;/div&gt;&lt;div&gt;&amp;nbsp; &amp;nbsp; pow_dbrc: pow(a, b)&lt;/div&gt;" style="rounded=0;whiteSpace=wrap;html=1;align=left;spacing=10;" parent="1" vertex="1">
          <mxGeometry x="1195" y="290" width="210" height="110" as="geometry" />
        </mxCell>
        <mxCell id="L-Nm37MA_dD64SVrKHD7-104" value="&lt;div&gt;SCALAR_REDUCE_OP&lt;/div&gt;&lt;div&gt;&amp;nbsp; &amp;nbsp; max_red_scl: max(a)&lt;/div&gt;&lt;div&gt;&amp;nbsp; &amp;nbsp; min_red_scl: min(a)&lt;/div&gt;&lt;div&gt;&amp;nbsp; &amp;nbsp; sum_red_scl: sum(a)&lt;/div&gt;&lt;div&gt;&amp;nbsp; &amp;nbsp; mean_red_scl: sum(a) / a-&amp;gt;nelem&lt;/div&gt;" style="rounded=0;whiteSpace=wrap;html=1;align=left;spacing=10;" parent="1" vertex="1">
          <mxGeometry x="950" y="810" width="225" height="110" as="geometry" />
        </mxCell>
        <mxCell id="L-Nm37MA_dD64SVrKHD7-105" value="&lt;div&gt;TENSOR_REDUCE_OP&lt;/div&gt;&lt;div&gt;&amp;nbsp; &amp;nbsp; max_red_tns: max(a)&lt;/div&gt;&lt;div&gt;&amp;nbsp; &amp;nbsp; min_red_tns: min(a)&lt;/div&gt;&lt;div&gt;&amp;nbsp; &amp;nbsp; sum_red_tns: sum(a)&lt;/div&gt;&lt;div&gt;&amp;nbsp; &amp;nbsp; mean_red_tns: sum(a) / a-&amp;gt;nelem&lt;/div&gt;" style="rounded=0;whiteSpace=wrap;html=1;align=left;spacing=10;" parent="1" vertex="1">
          <mxGeometry x="1195" y="810" width="225" height="110" as="geometry" />
        </mxCell>
      </root>
    </mxGraphModel>
  </diagram>
</mxfile>
